<?xml version="1.0" encoding="UTF-8"?>
<!-- Generator: Adobe Illustrator 15.0.2, SVG Export Plug-In . SVG Version: 6.00 Build 0)  -->
<!DOCTYPE svg PUBLIC "-//W3C//DTD SVG 1.1//EN" "http://www.w3.org/Graphics/SVG/1.1/DTD/svg11.dtd">
<svg xmlns="http://www.w3.org/2000/svg" xmlns:xlink="http://www.w3.org/1999/xlink" version="1.1" id="Layer_1" x="0px" y="0px" width="512px" height="589.343px" viewBox="0 0 512 589.343" enable-background="new 0 0 512 589.343" xml:space="preserve">
<path d="M437.659,261.153l0.194,0.006h5.126c36.126,0,65.518,29.003,65.518,64.649v0.376l0.048,0.377  c2.381,31.201,3.547,63.799,3.449,96.931c0.098,33.182-1.068,65.779-3.449,96.98l-0.048,0.376v0.377  c0,35.646-34.305,64.649-70.425,64.649h4.506c-57.702,2.416-123.735,3.57-186.562,3.461c-62.864,0.109-128.898-1.045-186.6-3.461  h4.512c-36.126,0-70.436-29.003-70.436-64.649v-0.377l-0.03-0.376c-2.387-31.177-3.553-63.787-3.456-96.932  c-0.097-33.181,1.063-65.791,3.456-96.979l0.03-0.377v-0.376c0-35.646,34.31-64.649,70.436-64.649l-4.512-0.006  c57.689-2.411,123.729-3.571,186.562-3.455C318.854,257.582,379.97,258.742,437.659,261.153z M413.211,410.813  c0-7.142,1.093-12.243,3.292-15.328c2.198-3.085,5.805-4.639,10.857-4.639c4.81,0,8.332,1.554,10.518,4.639  c2.198,3.085,3.304,8.187,3.304,15.328v17.222h-27.971V410.813z M473.755,454.476v-43.347c0-16.165-3.886-28.554-11.659-37.165  c-7.773-8.623-18.898-12.922-33.388-12.922c-14.173,0-25.711,4.651-34.662,13.955c-8.951,9.303-13.421,21.339-13.421,36.132v76.418  c0,16.396,4.081,29.27,12.219,38.646c8.149,9.352,19.311,14.039,33.472,14.039c15.765,0,27.606-4.421,35.537-13.25  c7.943-8.83,11.902-21.971,11.902-39.436V474.77h-32.573v11.83c0,10.008-1.045,16.493-3.134,19.42s-5.757,4.396-11.016,4.396  c-5.04,0-8.61-1.736-10.7-5.198c-2.089-3.461-3.121-9.667-3.121-18.618v-32.124H473.755z M324.174,495.708  c0,5.43-0.923,9.353-2.744,11.732c-1.822,2.393-4.688,3.595-8.551,3.595l-7.651-1.846l-7.493-5.976V397.101l6.521-5.186l6.692-1.676  c4.287,0,7.578,1.493,9.825,4.469c2.259,2.976,3.4,7.336,3.4,13.093V495.708z M325.875,363.191c-4.907,0-9.753,1.349-14.551,4.057  c-4.797,2.708-9.327,6.655-13.59,11.854v-74.316h-31.967v230.832h31.967v-13.092c4.166,5.186,8.659,9.036,13.518,11.514  c4.846,2.489,10.372,3.74,16.554,3.74c9.376,0,16.554-3.206,21.509-9.644c4.956-6.425,7.434-15.691,7.434-27.788v-94.466  c0-13.918-2.647-24.509-7.919-31.784C343.559,366.823,335.906,363.191,325.875,363.191z M203.22,494.591l-9.783,9.17  c-3.559,2.393-6.497,3.583-8.829,3.583c-2.97,0-5.119-0.899-6.443-2.709s-1.992-4.725-1.992-8.757V365.341h-31.656v142.318  c0,10.142,1.858,17.744,5.568,22.821c3.711,5.064,9.23,7.603,16.548,7.603c5.939,0,12.066-1.821,18.376-5.429  c6.315-3.619,12.382-8.915,18.212-15.838v18.801h31.663V365.341H203.22V494.591z M144.953,304.785H35.531v33.509h36.884v197.323  h35.646V338.294h36.892V304.785z M86.85,0h35.908l23.137,92.268h2.234L170.19,0h36.224L164.92,135.049v95.784h-35.652V139.36  L86.85,0z M237.378,190.941c0,4.688,1.124,8.302,3.383,10.858c2.253,2.556,5.472,3.825,9.655,3.825c4.294,0,7.7-1.3,10.227-3.904  c2.514-2.611,3.777-6.2,3.777-10.779V98.206c0-3.722-1.288-6.729-3.856-9.018c-2.575-2.283-5.957-3.431-10.147-3.431  c-3.862,0-7.002,1.147-9.412,3.431c-2.417,2.289-3.626,5.296-3.626,9.018V190.941z M204.799,99.481  c0-13.189,4.263-23.683,12.782-31.505c8.526-7.821,19.979-11.726,34.371-11.726c13.099,0,23.836,4.123,32.191,12.363  c8.38,8.241,12.559,18.85,12.559,31.827v87.949c0,14.574-4.105,26.003-12.315,34.299c-8.198,8.295-19.493,12.442-33.88,12.442  c-13.845,0-24.934-4.281-33.241-12.837c-8.313-8.562-12.467-20.076-12.467-34.542V99.481z M413.939,60.55v170.283h-31.662v-18.802  c-5.83,6.93-11.902,12.206-18.218,15.826c-6.315,3.619-12.437,5.435-18.364,5.435c-7.323,0-12.85-2.532-16.554-7.609  c-3.717-5.064-5.574-12.667-5.574-22.809V60.55h31.675v130.531c0,4.038,0.655,6.959,1.979,8.763  c1.323,1.804,3.474,2.715,6.449,2.715c2.332,0,5.271-1.196,8.817-3.589l9.789-9.164V60.55H413.939z" fill="#FFFFFF"/>
</svg>
